<mxfile host="65bd71144e">
    <diagram id="_lRoFHo8B9kp63g3YLfQ" name="Page-1">
        <mxGraphModel dx="1160" dy="786" grid="1" gridSize="10" guides="1" tooltips="1" connect="1" arrows="1" fold="1" page="1" pageScale="1" pageWidth="827" pageHeight="1169" math="0" shadow="0">
            <root>
                <mxCell id="0"/>
                <mxCell id="1" parent="0"/>
                <mxCell id="YEAidsoHxIhszzyqAkh_-1" style="edgeStyle=orthogonalEdgeStyle;rounded=0;orthogonalLoop=1;jettySize=auto;html=1;exitX=0;exitY=0.5;exitDx=0;exitDy=0;entryX=0.5;entryY=0;entryDx=0;entryDy=0;" parent="1" source="YEAidsoHxIhszzyqAkh_-2" target="YEAidsoHxIhszzyqAkh_-13" edge="1">
                    <mxGeometry relative="1" as="geometry"/>
                </mxCell>
                <mxCell id="YEAidsoHxIhszzyqAkh_-2" value="组件数据" style="rounded=1;whiteSpace=wrap;html=1;fillColor=#cdeb8b;strokeColor=#36393d;" parent="1" vertex="1">
                    <mxGeometry x="310" y="180" width="120" height="60" as="geometry"/>
                </mxCell>
                <mxCell id="YEAidsoHxIhszzyqAkh_-3" style="edgeStyle=orthogonalEdgeStyle;rounded=0;orthogonalLoop=1;jettySize=auto;html=1;exitX=0.5;exitY=0;exitDx=0;exitDy=0;entryX=0.5;entryY=1;entryDx=0;entryDy=0;" parent="1" source="YEAidsoHxIhszzyqAkh_-5" target="YEAidsoHxIhszzyqAkh_-2" edge="1">
                    <mxGeometry relative="1" as="geometry"/>
                </mxCell>
                <mxCell id="YEAidsoHxIhszzyqAkh_-4" style="edgeStyle=orthogonalEdgeStyle;rounded=0;orthogonalLoop=1;jettySize=auto;html=1;exitX=0.25;exitY=1;exitDx=0;exitDy=0;entryX=0.25;entryY=0;entryDx=0;entryDy=0;" parent="1" source="YEAidsoHxIhszzyqAkh_-5" target="YEAidsoHxIhszzyqAkh_-11" edge="1">
                    <mxGeometry relative="1" as="geometry"/>
                </mxCell>
                <mxCell id="YEAidsoHxIhszzyqAkh_-5" value="运行时" style="rounded=1;whiteSpace=wrap;html=1;fillColor=#e51400;fontColor=#ffffff;strokeColor=#B20000;" parent="1" vertex="1">
                    <mxGeometry x="310" y="310" width="120" height="60" as="geometry"/>
                </mxCell>
                <mxCell id="YEAidsoHxIhszzyqAkh_-6" style="edgeStyle=orthogonalEdgeStyle;rounded=0;orthogonalLoop=1;jettySize=auto;html=1;exitX=0.5;exitY=0;exitDx=0;exitDy=0;entryX=1;entryY=0.5;entryDx=0;entryDy=0;" parent="1" source="YEAidsoHxIhszzyqAkh_-9" target="YEAidsoHxIhszzyqAkh_-2" edge="1">
                    <mxGeometry relative="1" as="geometry"/>
                </mxCell>
                <mxCell id="YEAidsoHxIhszzyqAkh_-7" style="edgeStyle=orthogonalEdgeStyle;rounded=0;orthogonalLoop=1;jettySize=auto;html=1;exitX=0;exitY=0.5;exitDx=0;exitDy=0;entryX=1;entryY=0.5;entryDx=0;entryDy=0;" parent="1" source="YEAidsoHxIhszzyqAkh_-9" target="YEAidsoHxIhszzyqAkh_-5" edge="1">
                    <mxGeometry relative="1" as="geometry"/>
                </mxCell>
                <mxCell id="YEAidsoHxIhszzyqAkh_-8" style="edgeStyle=orthogonalEdgeStyle;rounded=0;orthogonalLoop=1;jettySize=auto;html=1;exitX=0.5;exitY=1;exitDx=0;exitDy=0;entryX=1;entryY=0.5;entryDx=0;entryDy=0;" parent="1" source="YEAidsoHxIhszzyqAkh_-9" target="YEAidsoHxIhszzyqAkh_-11" edge="1">
                    <mxGeometry relative="1" as="geometry"/>
                </mxCell>
                <mxCell id="YEAidsoHxIhszzyqAkh_-9" value="Url 参数" style="rounded=1;whiteSpace=wrap;html=1;" parent="1" vertex="1">
                    <mxGeometry x="490" y="310" width="120" height="60" as="geometry"/>
                </mxCell>
                <mxCell id="YEAidsoHxIhszzyqAkh_-10" style="edgeStyle=orthogonalEdgeStyle;rounded=0;orthogonalLoop=1;jettySize=auto;html=1;exitX=0.75;exitY=0;exitDx=0;exitDy=0;entryX=0.75;entryY=1;entryDx=0;entryDy=0;" parent="1" source="YEAidsoHxIhszzyqAkh_-11" target="YEAidsoHxIhszzyqAkh_-5" edge="1">
                    <mxGeometry relative="1" as="geometry"/>
                </mxCell>
                <mxCell id="YEAidsoHxIhszzyqAkh_-11" value="全局Api" style="rounded=1;whiteSpace=wrap;html=1;" parent="1" vertex="1">
                    <mxGeometry x="310" y="440" width="120" height="60" as="geometry"/>
                </mxCell>
                <mxCell id="YEAidsoHxIhszzyqAkh_-12" style="edgeStyle=orthogonalEdgeStyle;rounded=0;orthogonalLoop=1;jettySize=auto;html=1;exitX=1;exitY=0.5;exitDx=0;exitDy=0;entryX=0;entryY=0.5;entryDx=0;entryDy=0;" parent="1" source="YEAidsoHxIhszzyqAkh_-13" target="YEAidsoHxIhszzyqAkh_-5" edge="1">
                    <mxGeometry relative="1" as="geometry"/>
                </mxCell>
                <mxCell id="YEAidsoHxIhszzyqAkh_-13" value="global 静态注入" style="rounded=1;whiteSpace=wrap;html=1;" parent="1" vertex="1">
                    <mxGeometry x="120" y="310" width="120" height="60" as="geometry"/>
                </mxCell>
                <mxCell id="YEAidsoHxIhszzyqAkh_-14" style="edgeStyle=orthogonalEdgeStyle;rounded=0;orthogonalLoop=1;jettySize=auto;html=1;exitX=0.5;exitY=1;exitDx=0;exitDy=0;entryX=0.5;entryY=0;entryDx=0;entryDy=0;" parent="1" source="YEAidsoHxIhszzyqAkh_-15" target="YEAidsoHxIhszzyqAkh_-2" edge="1">
                    <mxGeometry relative="1" as="geometry"/>
                </mxCell>
                <mxCell id="YEAidsoHxIhszzyqAkh_-15" value="静态配置" style="rounded=1;whiteSpace=wrap;html=1;" parent="1" vertex="1">
                    <mxGeometry x="310" y="50" width="120" height="60" as="geometry"/>
                </mxCell>
                <mxCell id="YEAidsoHxIhszzyqAkh_-16" style="edgeStyle=orthogonalEdgeStyle;rounded=0;orthogonalLoop=1;jettySize=auto;html=1;exitX=0.5;exitY=0;exitDx=0;exitDy=0;entryX=0.5;entryY=1;entryDx=0;entryDy=0;" parent="1" source="YEAidsoHxIhszzyqAkh_-17" target="YEAidsoHxIhszzyqAkh_-11" edge="1">
                    <mxGeometry relative="1" as="geometry"/>
                </mxCell>
                <mxCell id="YEAidsoHxIhszzyqAkh_-17" value="静态配置" style="rounded=1;whiteSpace=wrap;html=1;" parent="1" vertex="1">
                    <mxGeometry x="310" y="570" width="120" height="60" as="geometry"/>
                </mxCell>
                <mxCell id="2" value="&lt;h1&gt;yugong数据流&lt;/h1&gt;&lt;p&gt;组件与运行时的数据通信&lt;/p&gt;" style="text;html=1;strokeColor=none;fillColor=none;spacing=5;spacingTop=-20;whiteSpace=wrap;overflow=hidden;rounded=0;" vertex="1" parent="1">
                    <mxGeometry x="20" y="20" width="190" height="120" as="geometry"/>
                </mxCell>
            </root>
        </mxGraphModel>
    </diagram>
</mxfile>